<svg xmlns="http://www.w3.org/2000/svg" width="400.32" height="400.32" viewBox="0 0 400.32 400.32"><circle fill="#9248B8" cx="200.16" cy="200.16" r="184"/><g fill="#FFF"><path d="M144.456 310.964l-20.01-133.977-1.16-8.99h-1.74v142.967H92.547V97.819h38.279l18.56 97.438 1.45 11.31h.58l1.449-11.31 18.56-97.438h38.279v213.145h-28.999V167.997h-1.74l-1.16 8.99-20.009 133.977h-13.34zM314.394 267.175c-.29 8.7-2.03 16.529-5.22 23.199-2.61 5.8-6.67 11.311-12.47 15.66-5.8 4.64-13.63 7.25-24.069 7.25-10.44 0-18.56-2.61-24.359-7.25-5.8-4.35-9.57-9.86-12.18-15.66-3.19-6.67-4.931-14.499-5.221-23.199V141.608c.29-8.41 2.03-16.24 5.221-22.91 2.609-5.8 6.38-11.6 12.18-15.95s13.919-7.25 24.359-7.25c10.439 0 18.27 2.9 24.069 7.25 5.8 4.35 9.859 10.15 12.47 15.95 3.189 6.67 4.93 14.5 5.22 22.91v125.567zm-31.32-125.567c0-5.8-1.16-9.86-4.06-13.34-1.45-1.45-3.771-2.32-6.38-2.32-5.51 0-8.12 4.06-9.28 7.83-.87 2.32-1.16 4.93-1.16 7.83v125.567c0 6.09 1.45 10.149 4.351 13.34 1.449 1.45 3.479 2.32 6.09 2.32 5.51 0 8.119-3.48 9.279-7.83.87-2.03 1.16-4.64 1.16-7.83V141.608z"/></g></svg>