<svg xmlns="http://www.w3.org/2000/svg" width="400.32" height="400.32" viewBox="0 0 400.32 400.32"><circle fill="#AAC016" cx="200.16" cy="200.16" r="184"/><path fill="#FFF" d="M122.415 310.614l-20.01-133.977-1.16-8.99h-1.74v142.967H70.506V97.469h38.279l18.56 97.438 1.45 11.31h.58l1.449-11.31 18.56-97.438h38.279v213.145h-28.999V167.647h-1.74l-1.16 8.99-20.009 133.977h-13.34zm133.398 0h-24.359l-28.71-213.145h29l12.47 110.778.58 6.959h2.319l.87-6.959 13.34-110.778h22.619l13.34 110.778.87 6.959h2.32l.58-6.959 12.47-110.778h28.999l-28.71 213.145h-24.359l-14.499-100.918-1.74-12.469h-1.16l-1.739 12.469-14.501 100.918z"/></svg>