<svg xmlns="http://www.w3.org/2000/svg" width="163" height="24" viewBox="0 0 163 24"><path fill="#666" d="M23.343 11.278l.375 1.716h-1.344l.645-1.66.214-.568.11.512zm4.338-6.156v14c0 1.104-.895 2-2 2h-20c-1.103 0-2-.896-2-2v-14c0-1.104.897-2 2-2h20c1.105 0 2 .896 2 2zm-17.145 9.97l2.55-5.93h-1.716l-1.586 4.052-.17-.823-.567-2.73c-.098-.375-.383-.488-.734-.5h-2.61l-.022.123c.636.154 1.204.376 1.702.65l1.44 5.162 1.713-.003zm4.823-5.933h-1.62l-1.01 5.94h1.618l1.012-5.94zm4.625 3.998c.007-.676-.425-1.19-1.358-1.614-.566-.275-.914-.458-.91-.736 0-.247.294-.51.928-.51.53-.01.913.106 1.212.227l.145.068.22-1.287c-.322-.12-.825-.25-1.452-.25-1.6 0-2.727.806-2.737 1.96-.008.855.806 1.33 1.42 1.615.63.292.84.48.84.738-.005.398-.505.58-.97.58-.648 0-.992-.09-1.525-.312l-.21-.095-.226 1.33c.377.167 1.077.31 1.803.318 1.702 0 2.807-.797 2.82-2.03zm5.698 1.944l-1.31-5.938h-1.252c-.388 0-.678.106-.848.493L19.866 15.1h1.7l.34-.893 2.074.003.197.89h1.504zM52.123 16.565c0 .193-.128.34-.318.34-.2 0-.32-.153-.32-.34 0-.186.12-.338.32-.338.19 0 .318.147.318.338zm-6.814-.338c-.2 0-.322.153-.322.34 0 .186.122.34.32.34.19 0 .32-.147.32-.34s-.128-.34-.32-.34zm3.39-.01c-.164 0-.257.103-.28.256h.548c-.024-.164-.12-.257-.268-.257zm5.24.01c-.2 0-.32.153-.32.34 0 .186.12.34.32.34.19 0 .32-.147.32-.34s-.13-.34-.32-.34zm6.718-10.105v12c0 1.104-.896 2-2 2h-20c-1.104 0-2-.896-2-2v-12c0-1.104.896-2 2-2h20c1.103 0 2 .896 2 2zm-18.456 4.984c0 2.2 1.784 3.985 3.985 3.985.77 0 1.487-.218 2.096-.595-.967-.813-1.582-2.03-1.582-3.39s.617-2.575 1.583-3.388c-.61-.377-1.326-.596-2.096-.596-2.2.002-3.985 1.786-3.985 3.986zm2.346 5.324c0-.25-.16-.418-.416-.42-.135-.003-.274.04-.372.188-.073-.117-.188-.188-.35-.188-.113 0-.224.032-.31.156v-.13h-.23v1.058h.232v-.588c0-.184.102-.28.26-.28.152 0 .23.1.23.278v.59h.23v-.588c0-.184.107-.28.26-.28.157 0 .232.1.232.278v.59h.234v-.664zm1.297-.393h-.23v.128c-.073-.095-.184-.154-.334-.154-.296 0-.528.232-.528.556 0 .324.232.557.53.557.15 0 .26-.06.333-.155v.128h.23v-1.06zm1.164.74c0-.187-.14-.283-.37-.317l-.11-.016c-.1-.014-.178-.033-.178-.104 0-.077.075-.124.2-.124.136 0 .267.05.33.092l.1-.187c-.11-.072-.262-.11-.43-.11-.27 0-.44.128-.44.34 0 .173.127.278.364.31l.108.017c.126.02.186.05.186.11 0 .083-.084.13-.24.13-.16 0-.275-.052-.353-.11l-.108.177c.125.095.284.14.457.14.305-.002.482-.147.482-.347zm1.024.263l-.066-.197c-.07.04-.144.06-.204.06-.115 0-.153-.07-.153-.177v-.478h.377v-.21h-.376v-.32h-.23v.32h-.216v.21h.215v.483c0 .247.094.393.366.393.1 0 .215-.033.288-.083zm1.173-.475c-.002-.33-.207-.555-.503-.555-.31 0-.527.226-.527.555 0 .337.226.557.542.557.158 0 .304-.04.433-.148l-.113-.17c-.09.07-.2.11-.308.11-.148 0-.283-.067-.317-.258h.786l.007-.09zm.908-.525l-.164-.03c-.132 0-.218.063-.278.156v-.128h-.228v1.06h.23V16.5c0-.175.074-.272.226-.272l.145.027.07-.217zm.308.525c0-.203.135-.336.318-.338.1 0 .19.033.278.095l.11-.187c-.114-.09-.22-.125-.38-.125-.342 0-.564.234-.564.555 0 .322.222.557.562.557.16 0 .266-.035.38-.126l-.11-.187c-.086.06-.176.095-.276.095-.182-.002-.317-.135-.317-.34zm1.916-.528h-.23v.128c-.074-.095-.185-.154-.335-.154-.297 0-.53.232-.53.556 0 .324.233.557.53.557.15 0 .26-.06.334-.155v.128h.23v-1.06zm.972.003l-.163-.03c-.135 0-.22.063-.28.156v-.128h-.228v1.06h.23V16.5c0-.175.074-.272.225-.272l.145.027.07-.217zm1.162-.428h-.23v.553c-.072-.095-.184-.154-.333-.154-.296 0-.527.232-.527.556 0 .324.23.557.528.557.152 0 .262-.06.335-.155v.128h.23v-1.484zm.64-4.506c0-2.2-1.785-3.985-3.985-3.985s-3.986 1.785-3.986 3.986 1.784 3.985 3.985 3.985c2.2 0 3.984-1.783 3.984-3.984zM123.206 11.307h-.174v-.925h.184c.37 0 .574.156.574.453 0 .307-.203.472-.584.472zm-16.84-.89h-.16v2.02h.16c.385 0 .63-.073.816-.242.205-.184.33-.477.33-.77 0-.293-.125-.577-.33-.76-.197-.178-.43-.248-.816-.248zm20.244-4.295v12c0 1.104-.896 2-2 2h-20c-1.104 0-2-.896-2-2v-12c0-1.104.896-2 2-2h20c1.104 0 2 .896 2 2zm-4.172 6.835h.596V11.73h.077l.826 1.227h.733l-.964-1.288c.45-.092.696-.4.696-.868 0-.572-.394-.902-1.082-.902h-.884l.002 3.057zm-2.086 0h1.69v-.517h-1.095v-.825h1.056v-.518h-1.056v-.678h1.095V9.9h-1.69v3.057zM117.144 9.9l1.297 3.134h.32l1.32-3.135h-.645l-.826 2.052-.816-2.053h-.65zm-3.094 1.545c0 .916.742 1.66 1.658 1.66s1.66-.744 1.66-1.66-.744-1.66-1.66-1.66-1.658.744-1.658 1.66zm-2.53-.014c0 .9.706 1.596 1.613 1.596.258 0 .477-.05.748-.178v-.703c-.237.24-.448.335-.72.335-.6 0-1.027-.435-1.027-1.054 0-.587.44-1.05 1-1.05.283 0 .5.102.746.344v-.702c-.263-.133-.478-.188-.733-.188-.9 0-1.626.712-1.626 1.6zm-3.394 0c0-.9-.674-1.53-1.64-1.53h-.876v3.057h.87c.464 0 .798-.108 1.092-.353.35-.29.554-.725.554-1.173zm.87-1.53h-.596v3.055h.597V9.9zm1.724 2.154c0 .248-.196.43-.463.43-.283 0-.513-.14-.65-.407l-.385.37c.275.403.604.583 1.058.583.62 0 1.054-.412 1.054-1.004 0-.486-.2-.705-.88-.953-.356-.132-.462-.22-.462-.385 0-.193.188-.34.444-.34.18 0 .325.074.48.248l.313-.408c-.258-.224-.564-.338-.898-.338-.54 0-.953.376-.953.876 0 .42.19.637.75.838.233.082.353.137.413.174.117.077.177.188.177.316zm14.89 1.216s-5.73 4.045-16.227 5.854h14.977c.69 0 1.25-.56 1.25-1.25V13.27zM91.634 4.122h-20c-1.104 0-2 .896-2 2v12c0 1.104.896 2 2 2h20c1.104 0 2-.896 2-2v-12c0-1.104-.897-2-2-2zm-11.292 11.11h-1.33c-.122 0-.22-.104-.212-.225.024-.383.246-1.64 1.015-6.586.025-.172.173-.3.346-.3h2.45c1.31 0 2.275.77 2.01 2.148-.276 1.433-1.15 2.13-2.675 2.13h-.753c-.31.002-.424.12-.462.394l-.388 2.44zm5.07-3.315c-.283 1.474-1.25 1.98-2.484 1.98h-.19c-.15 0-.28.112-.304.265l-.268 1.697c-.023.15-.15.26-.302.26h-.912c-.13 0-.23-.115-.21-.243l.463-2.96c.002-.01.01-.02.02-.02h.72c1.744 0 2.836-.873 3.157-2.522.27.272.366.626.366 1 0 .18-.022.362-.057.542zM154.116 10.46l-1.008 1.09-.98-1.09h-3.196v3.33h3.148l1.016-1.105.977 1.104h1.023l-1.486-1.655 1.486-1.675h-.98zm-2.438 2.64h-1.957v-.666h1.745v-.677h-1.744v-.608h1.995l.87.972-.907.978zm-8.715-2.752l-.01-.02h.01v.02zm2.996 2.37l-1.042-2.258h-1.297v3.147l-1.348-3.147h-1.185l-1.422 3.33h.864l.307-.747h1.654l.308.746h1.62V11.18l1.152 2.607h.702l1.146-2.608.006 2.607h.785v-3.33h-1.294l-.957 2.257zm-4.84-.364l.545-1.33.545 1.33h-1.09zm16.466-8.232h-20c-1.104 0-2 .896-2 2v12c0 1.104.896 2 2 2h20c1.104 0 2-.896 2-2v-12c0-1.104-.896-2-2-2zm-1 10.32h-2.86l-.632-.72-.676.72H142.31l-.3-.74h-.69l-.3.74h-2.434l2.03-4.64h4.772l.534 1.198.52-1.198h6.057l.612.71.658-.71h2.816l-2.037 2.332 2.036 2.308z"/></svg>