<?xml version="1.0" encoding="utf-8"?>
<!-- Generator: Adobe Illustrator 16.0.5, SVG Export Plug-In . SVG Version: 6.00 Build 0)  -->
<!DOCTYPE svg PUBLIC "-//W3C//DTD SVG 1.1//EN" "http://www.w3.org/Graphics/SVG/1.1/DTD/svg11.dtd">
<svg version="1.1" id="SC" xmlns="http://www.w3.org/2000/svg" xmlns:xlink="http://www.w3.org/1999/xlink" x="0px" y="0px"
	 width="400.32px" height="400.32px" viewBox="0 0 400.32 400.32" enable-background="new 0 0 400.32 400.32" xml:space="preserve">
<g id="small_1_">
	<circle fill="#00456A" cx="200.16" cy="200.16" r="184"/>
	<path fill="#FFFFFF" d="M171.717,154.947c0-6.959-0.29-14.79-2.32-20.879c-2.03-5.8-5.22-9.86-10.149-9.86
		c-8.12,0.29-10.73,8.7-10.73,21.17c0,7.25,3.19,14.79,7.83,22.909c4.64,8.12,10.729,16.53,16.819,25.52
		c7.25,10.73,14.5,21.75,20.01,32.48c5.51,10.729,9.28,21.749,9.28,33.349c0,14.21-2.32,27.55-8.99,37.409
		c-6.67,9.86-17.399,16.24-34.509,16.24c-20.01,0-31.319-7.54-37.699-19.14s-7.83-26.97-7.83-42.919l30.739-2.9
		c0,8.99,0.29,17.979,2.61,24.649c2.029,6.96,5.51,11.6,12.18,11.6c9.279,0,12.76-9.859,12.76-23.489c0-6.96-3.48-15.08-8.12-23.489
		c-2.61-4.06-5.22-8.41-8.12-12.76c-6.09-8.7-12.76-18.56-19.719-29.29c-6.96-10.73-12.18-21.75-15.37-33.06
		c-1.74-5.51-2.61-11.31-2.61-17.109c0-11.6,2.61-24.07,9.28-33.64c6.67-9.28,16.819-15.949,31.609-16.239
		c18.85-0.29,29.869,7.54,35.959,18.85c6.09,11.6,7.83,25.809,7.83,37.699L171.717,154.947z M219.273,97.818h71.629v32.189h-40.31
		v55.969h28.999v34.22h-28.999v58.578h40.31v32.189h-71.629V97.818z"/>
</g>
</svg>
