<?xml version="1.0" encoding="utf-8"?>
<!-- Generator: Adobe Illustrator 16.0.4, SVG Export Plug-In . SVG Version: 6.00 Build 0)  -->
<!DOCTYPE svg PUBLIC "-//W3C//DTD SVG 1.1//EN" "http://www.w3.org/Graphics/SVG/1.1/DTD/svg11.dtd">
<svg version="1.1" id="CA" xmlns="http://www.w3.org/2000/svg" xmlns:xlink="http://www.w3.org/1999/xlink" x="0px" y="0px"
	 width="400px" height="400px" viewBox="0 0 400 400" enable-background="new 0 0 400 400" xml:space="preserve">
<circle fill="#F05033" cx="200" cy="200" r="200"/>
<path fill="#FFFFFF" d="M190.375,241.18v31.836c-0.315,9.457-2.206,17.967-5.674,25.217c-2.836,6.305-7.25,12.295-13.554,17.022
	c-6.305,5.043-14.815,7.88-26.163,7.88c-11.348,0-20.173-2.837-26.477-7.88c-6.304-4.729-10.402-10.718-13.239-17.022
	c-3.467-7.25-5.36-15.76-5.675-25.217V136.529c0.315-9.141,2.207-17.652,5.675-24.902c2.836-6.305,6.935-12.609,13.239-17.337
	c6.305-4.729,15.129-7.881,26.477-7.881c11.347,0,19.859,3.152,26.163,7.881c6.304,4.728,10.716,11.032,13.554,17.337
	c3.467,7.25,5.359,15.761,5.674,24.902v31.836h-31.836v-31.836c0-6.304-1.576-10.717-5.044-14.5
	c-1.575-1.576-4.414-2.521-7.879-2.521c-5.99,0-8.826,4.413-10.402,8.511c-0.946,2.522-1.261,5.359-1.576,8.511v136.485
	c0.315,6.62,2.207,11.032,5.36,14.5c1.575,1.576,3.782,2.522,6.62,2.522c7.25,0,10.086-3.783,11.662-8.511
	c0.946-2.206,1.261-5.044,1.261-8.512v-31.836L190.375,241.18L190.375,241.18z M201.407,320.613l34.986-231.681h41.608
	l34.988,231.681h-33.097l-6.305-47.282h-32.781l-6.304,47.282H201.407z M259.091,164.268l-0.946-5.989h-1.892l-0.944,5.989
	l-9.771,73.13h23.325L259.091,164.268z"/>
</svg>
