<?xml version="1.0" encoding="utf-8"?>
<!-- Generator: Adobe Illustrator 16.0.5, SVG Export Plug-In . SVG Version: 6.00 Build 0)  -->
<!DOCTYPE svg PUBLIC "-//W3C//DTD SVG 1.1//EN" "http://www.w3.org/Graphics/SVG/1.1/DTD/svg11.dtd">
<svg version="1.1" id="SC" xmlns="http://www.w3.org/2000/svg" xmlns:xlink="http://www.w3.org/1999/xlink" x="0px" y="0px"
	 width="400.32px" height="400.32px" viewBox="0 0 400.32 400.32" enable-background="new 0 0 400.32 400.32" xml:space="preserve">
<g id="small_1_">
	<circle fill="#F05033" cx="200.16" cy="200.16" r="184"/>
	<path fill="#FFFFFF" d="M191.145,237.886v29.289c-0.29,8.7-2.03,16.529-5.22,23.199c-2.61,5.8-6.67,11.311-12.47,15.66
		c-5.8,4.64-13.63,7.25-24.069,7.25c-10.44,0-18.56-2.61-24.359-7.25c-5.8-4.35-9.57-9.86-12.18-15.66
		c-3.19-6.67-4.931-14.499-5.221-23.199V141.607c0.29-8.41,2.03-16.24,5.221-22.91c2.609-5.8,6.38-11.6,12.18-15.95
		c5.8-4.35,13.919-7.25,24.359-7.25c10.439,0,18.27,2.9,24.069,7.25c5.8,4.35,9.859,10.15,12.47,15.95
		c3.189,6.67,4.93,14.5,5.22,22.91v29.289h-29.289v-29.289c0-5.8-1.45-9.86-4.641-13.34c-1.449-1.45-4.06-2.32-7.249-2.32
		c-5.511,0-8.12,4.06-9.57,7.83c-0.87,2.32-1.16,4.93-1.45,7.83v125.567c0.29,6.09,2.03,10.149,4.931,13.34
		c1.449,1.45,3.479,2.32,6.09,2.32c6.67,0,9.279-3.48,10.729-7.83c0.87-2.03,1.16-4.64,1.16-7.83v-29.289H191.145z M201.295,310.964
		l32.188-213.146h38.279l32.189,213.146h-30.449l-5.8-43.499h-30.159l-5.8,43.499H201.295z M254.363,167.126l-0.87-5.51h-1.74
		l-0.869,5.51l-8.99,67.279h21.46L254.363,167.126z"/>
</g>
</svg>
