<?xml version="1.0" encoding="utf-8"?>
<!-- Generator: Adobe Illustrator 16.0.4, SVG Export Plug-In . SVG Version: 6.00 Build 0)  -->
<!DOCTYPE svg PUBLIC "-//W3C//DTD SVG 1.1//EN" "http://www.w3.org/Graphics/SVG/1.1/DTD/svg11.dtd">
<svg version="1.1" id="Layer_1" xmlns="http://www.w3.org/2000/svg" xmlns:xlink="http://www.w3.org/1999/xlink" x="0px" y="0px"
	 width="400px" height="400px" viewBox="0 0 400 400" enable-background="new 0 0 400 400" xml:space="preserve">
<rect x="60.841" y="1.439" fill="#FFFFFF" width="278.318" height="397.598"/>
<path d="M60.841,1.439h278.318v397.598H60.841V1.439z M140.36,21.319h-39.76v39.76h39.76V21.319z M140.36,80.959h-39.76v39.76h39.76
	V80.959z M140.36,140.599h-39.76v39.76h39.76V140.599z M140.36,200.238h-39.76v39.76h39.76V200.238z M219.88,259.878H100.601
	v119.279H219.88V259.878z M219.88,21.319h-39.76v39.76h39.76V21.319z M219.88,80.959h-39.76v39.76h39.76V80.959z M219.88,140.599
	h-39.76v39.76h39.76V140.599z M219.88,200.238h-39.76v39.76h39.76V200.238z M299.399,21.319h-39.76v39.76h39.76V21.319z
	 M299.399,80.959h-39.76v39.76h39.76V80.959z M299.399,140.599h-39.76v39.76h39.76V140.599z M299.399,200.238h-39.76v39.76h39.76
	V200.238z M299.399,259.878h-39.76v39.76h39.76V259.878z M299.399,319.518h-39.76v39.76h39.76V319.518z"/>
</svg>
