<?xml version="1.0" encoding="utf-8"?>
<!-- Generator: Adobe Illustrator 16.0.4, SVG Export Plug-In . SVG Version: 6.00 Build 0)  -->
<!DOCTYPE svg PUBLIC "-//W3C//DTD SVG 1.1//EN" "http://www.w3.org/Graphics/SVG/1.1/DTD/svg11.dtd">
<svg version="1.1" id="MO" xmlns="http://www.w3.org/2000/svg" xmlns:xlink="http://www.w3.org/1999/xlink" x="0px" y="0px"
	 width="400px" height="400px" viewBox="0 0 400 400" enable-background="new 0 0 400 400" xml:space="preserve">
<circle fill="#B12278" cx="200" cy="200" r="200"/>
<g>
	<path fill="#FFFFFF" d="M139.626,320.613l-21.75-145.627l-1.261-9.771h-1.892v155.399H83.203V88.934h41.608l20.173,105.911
		l1.577,12.293h0.63l1.575-12.293L168.94,88.934h41.608v231.68h-31.521V165.214h-1.892l-1.261,9.771l-21.749,145.627H139.626z"/>
	<path fill="#FFFFFF" d="M324.341,273.016c-0.315,9.457-2.206,17.967-5.674,25.217c-2.836,6.305-7.25,12.295-13.554,17.022
		c-6.305,5.043-14.815,7.88-26.162,7.88c-11.348,0-20.174-2.837-26.478-7.88c-6.304-4.729-10.401-10.718-13.239-17.022
		c-3.467-7.25-5.359-15.76-5.675-25.217V136.53c0.315-9.141,2.207-17.652,5.675-24.902c2.836-6.305,6.936-12.609,13.239-17.337
		c6.305-4.729,15.13-7.88,26.478-7.88c11.347,0,19.857,3.152,26.162,7.88c6.304,4.728,10.717,11.032,13.554,17.337
		c3.467,7.25,5.358,15.761,5.674,24.902V273.016z M290.298,136.53c0-6.304-1.261-10.717-4.413-14.5
		c-1.575-1.576-4.099-2.521-6.935-2.521c-5.989,0-8.826,4.413-10.088,8.511c-0.944,2.522-1.261,5.359-1.261,8.511v136.485
		c0,6.621,1.577,11.032,4.729,14.501c1.575,1.575,3.781,2.521,6.62,2.521c5.988,0,8.825-3.782,10.086-8.511
		c0.945-2.207,1.261-5.043,1.261-8.512V136.53z"/>
</g>
</svg>
