<?xml version="1.0" encoding="utf-8"?>
<!-- Generator: Adobe Illustrator 16.0.4, SVG Export Plug-In . SVG Version: 6.00 Build 0)  -->
<!DOCTYPE svg PUBLIC "-//W3C//DTD SVG 1.1//EN" "http://www.w3.org/Graphics/SVG/1.1/DTD/svg11.dtd">
<svg version="1.1" id="MW" xmlns="http://www.w3.org/2000/svg" xmlns:xlink="http://www.w3.org/1999/xlink" x="0px" y="0px"
	 width="400px" height="400px" viewBox="0 0 400 400" enable-background="new 0 0 400 400" xml:space="preserve">
<circle fill="#AAC016" cx="200" cy="200" r="200"/>
	<path fill="#FFFFFF" d="M189.374,266.825c-0.29,8.7-2.03,16.529-5.22,23.199c-2.61,5.8-6.67,11.31-12.47,15.66
		c-5.8,4.64-13.63,7.25-24.069,7.25c-10.44,0-18.56-2.61-24.359-7.25c-5.8-4.351-9.57-9.86-12.18-15.66
		c-3.19-6.67-4.931-14.499-5.221-23.199V141.258c0.29-8.41,2.03-16.24,5.221-22.91c2.609-5.8,6.38-11.6,12.18-15.95
		c5.8-4.35,13.919-7.25,24.359-7.25c10.439,0,18.27,2.9,24.069,7.25c5.8,4.35,9.859,10.15,12.47,15.95
		c3.189,6.67,4.93,14.5,5.22,22.91V266.825z M158.055,141.258c0-5.8-1.16-9.86-4.06-13.34c-1.45-1.45-3.771-2.32-6.38-2.32
		c-5.51,0-8.12,4.06-9.28,7.83c-0.87,2.32-1.16,4.93-1.16,7.83v125.567c0,6.09,1.45,10.149,4.351,13.34
		c1.449,1.45,3.479,2.32,6.09,2.32c5.51,0,8.119-3.48,9.279-7.83c0.87-2.03,1.16-4.64,1.16-7.83V141.258z M266.221,217.816h-24.359
		v92.798h-31.319V97.469h31.319v88.158h24.359V97.469h31.319v213.145h-31.319V217.816z"/>
</svg>
