<?xml version="1.0" encoding="utf-8"?>
<!-- Generator: Adobe Illustrator 16.0.4, SVG Export Plug-In . SVG Version: 6.00 Build 0)  -->
<!DOCTYPE svg PUBLIC "-//W3C//DTD SVG 1.1//EN" "http://www.w3.org/Graphics/SVG/1.1/DTD/svg11.dtd">
<svg version="1.1" id="SE" xmlns="http://www.w3.org/2000/svg" xmlns:xlink="http://www.w3.org/1999/xlink" x="0px" y="0px"
	 width="400px" height="400px" viewBox="0 0 400 400" enable-background="new 0 0 400 400" xml:space="preserve">
<circle fill="#00456A" cx="200" cy="200" r="200"/>
	<path id="small" fill="#FFFFFF" d="M164.622,154.948c0-6.96-0.29-14.79-2.32-20.88c-2.03-5.8-5.22-9.86-10.149-9.86
		c-8.12,0.29-10.73,8.701-10.73,21.169c0,7.25,3.19,14.79,7.83,22.91c4.64,8.119,10.729,16.529,16.82,25.52
		c7.249,10.729,14.499,21.748,20.009,32.479s9.28,21.75,9.28,33.35c0,14.209-2.32,27.549-8.99,37.408
		c-6.67,9.861-17.399,16.24-34.509,16.24c-20.01,0-31.319-7.539-37.699-19.139s-7.83-26.971-7.83-42.92l30.739-2.9
		c0,8.99,0.29,17.98,2.61,24.65c2.029,6.959,5.51,11.6,12.18,11.6c9.279,0,12.76-9.859,12.76-23.49c0-6.959-3.48-15.08-8.12-23.488
		c-2.61-4.061-5.22-8.41-8.12-12.76c-6.09-8.701-12.76-18.561-19.719-29.289c-6.96-10.73-12.18-21.75-15.37-33.061
		c-1.74-5.51-2.61-11.309-2.61-17.109c0-11.6,2.61-24.069,9.28-33.639c6.67-9.28,16.819-15.949,31.609-16.239
		c18.85-0.29,29.869,7.54,35.959,18.85c6.09,11.6,7.83,25.809,7.83,37.699L164.622,154.948z M293.667,237.886v29.289
		c-0.29,8.701-2.03,16.529-5.22,23.199c-2.61,5.801-6.67,11.311-12.47,15.66c-5.8,4.641-13.63,7.25-24.069,7.25
		c-10.44,0-18.56-2.609-24.359-7.25c-5.8-4.35-9.57-9.859-12.18-15.66c-3.19-6.67-4.931-14.498-5.221-23.199V141.608
		c0.29-8.41,2.03-16.24,5.221-22.91c2.609-5.8,6.38-11.6,12.18-15.95c5.8-4.35,13.919-7.25,24.359-7.25
		c10.439,0,18.27,2.9,24.069,7.25c5.8,4.35,9.859,10.15,12.47,15.95c3.189,6.67,4.93,14.5,5.22,22.91v29.289h-29.289v-29.289
		c0-5.8-1.45-9.859-4.641-13.34c-1.449-1.45-4.06-2.32-7.249-2.32c-5.51,0-8.12,4.06-9.57,7.83c-0.87,2.32-1.16,4.93-1.45,7.83
		v125.566c0.29,6.09,2.03,10.15,4.931,13.34c1.449,1.451,3.479,2.32,6.09,2.32c6.67,0,9.279-3.48,10.729-7.83
		c0.87-2.029,1.16-4.639,1.16-7.83v-29.289H293.667z"/>
</svg>
