<?xml version="1.0" encoding="utf-8"?>
<!-- Generator: Adobe Illustrator 16.0.4, SVG Export Plug-In . SVG Version: 6.00 Build 0)  -->
<!DOCTYPE svg PUBLIC "-//W3C//DTD SVG 1.1//EN" "http://www.w3.org/Graphics/SVG/1.1/DTD/svg11.dtd">
<svg version="1.1" id="SE" xmlns="http://www.w3.org/2000/svg" xmlns:xlink="http://www.w3.org/1999/xlink" x="0px" y="0px"
	 width="400px" height="400px" viewBox="0 0 400 400" enable-background="new 0 0 400 400" xml:space="preserve">
<circle fill="#00456A" cx="200" cy="200" r="200"/>
<path fill="#FFFFFF" d="M169.257,151.029c0-7.564-0.315-16.076-2.521-22.695c-2.207-6.304-5.674-10.717-11.032-10.717
	c-8.826,0.315-11.663,9.457-11.663,23.011c0,7.88,3.468,16.076,8.511,24.901c5.043,8.826,11.662,17.968,18.281,27.739
	c7.88,11.661,15.761,23.642,21.75,35.305c5.99,11.66,10.087,23.641,10.087,36.248c0,15.446-2.522,29.946-9.772,40.662
	c-7.25,10.719-18.912,17.653-37.51,17.653c-21.75,0-34.042-8.196-40.978-20.806c-6.935-12.609-8.51-29.315-8.51-46.651l33.412-3.152
	c0,9.771,0.315,19.544,2.837,26.794c2.206,7.563,5.989,12.608,13.239,12.608c10.085,0,13.869-10.718,13.869-25.533
	c0-7.563-3.783-16.389-8.826-25.53c-2.837-4.414-5.674-9.141-8.826-13.871c-6.62-9.454-13.869-20.172-21.434-31.835
	c-7.565-11.663-13.239-23.641-16.707-35.935c-1.892-5.989-2.837-12.293-2.837-18.597c0-12.609,2.837-26.163,10.087-36.565
	c7.25-10.087,18.282-17.336,34.357-17.651c20.489-0.315,32.466,8.195,39.086,20.489c6.621,12.609,8.512,28.053,8.512,40.977
	L169.257,151.029z M220.948,88.932h77.857v34.989H254.99v60.835h31.521v37.196H254.99v63.671h43.815v34.989h-77.857V88.932z"/>
</svg>
